<?xml version="1.0" standalone="no"?><!DOCTYPE svg PUBLIC "-//W3C//DTD SVG 1.1//EN" "http://www.w3.org/Graphics/SVG/1.1/DTD/svg11.dtd"><svg t="1689079490690" class="icon" viewBox="0 0 1024 1024" version="1.1" xmlns="http://www.w3.org/2000/svg" p-id="2838" xmlns:xlink="http://www.w3.org/1999/xlink" width="200" height="200"><path d="M777.163195 783.837198c-47.791469 0-86.696548 39.295981-86.696548 87.590917s38.904055 87.590917 86.696548 87.590917c47.792493 0 86.696548-39.295981 86.696548-87.590917S824.955688 783.837198 777.163195 783.837198M777.163195 912.848481c-22.917966 0-41.475624-18.557658-41.475624-41.419342 0-22.917966 18.557658-41.475624 41.475624-41.475624 22.917966 0 41.475624 18.557658 41.475624 41.475624C818.638819 894.2898 800.081161 912.848481 777.163195 912.848481" p-id="2839" fill="#707070"></path><path d="M769.237689 662.122089c-4.304026 0-8.775874-0.11154-13.359262-0.390903l-345.69944 0.390903c0 0-11.799744-6.361895-11.688203-22.404266 0.056282-15.372106 11.495822-22.705118 11.495822-22.705118l347.567997 0 14.589276 0.056282c38.779212-1.531889 62.511729-4.178159 81.514525-30.491455 5.868661-8.126075 10.201339-18.166755 15.107069-30.828123l46.815235-164.352185c6.031367-29.320793-1.64957-40.614-9.866718-49.724495-12.800537-14.198374-48.942689-14.33652-48.942689-14.33652L364.765681 327.33621c0 0-11.234879-6.596232-11.234879-23.029506 0-15.372106 11.234879-21.687952 11.234879-21.687952l492.061902 0c4.78805 0.398066 49.040926-3.742231 80.678484 26.330692 18.893302 17.942651 24.193005 42.227754 21.265326 68.807109-1.709945 15.520485-51.568493 206.987215-73.424266 237.060137C865.391632 642.317021 837.207733 662.122089 769.237689 662.122089" p-id="2840" fill="#707070"></path><path d="M364.749308 749.416248c-39.128159 0-50.978045-9.390881-62.60485-23.812335-15.372106-19.116383-17.327644-43.99091-19.955494-55.449893l-78.256318-377.436258c-1.732457-10.900258-13.843286-26.362414-24.364921-32.32522-17.436114-9.880021-90.533946-5.786797-105.001449-6.597255 0 0-8.982582-7.079232-9.009188-21.556968-0.030699-16.564257 8.750291-22.428825 8.750291-22.428825 5.653767-0.475837 14.34266-0.541329 44.583404-0.708128 43.152822-0.167822 69.445652-0.014326 96.389304 18.71934 29.197996 20.300348 31.246655 49.804313 35.326577 75.573209l79.373769 376.149962 0.89437 4.136204c1.564635 4.694929 3.465938 8.608052 8.998955 13.527085 6.42841 5.757121 13.415544 7.266497 19.843954 7.490601l1.230014 0 509.445828-0.11154 0 44.717458L369.947703 749.303684C368.158964 749.359966 366.426507 749.416248 364.749308 749.416248" p-id="2841" fill="#707070"></path><path d="M451.450972 783.832082c-47.792493 0-86.696548 39.295981-86.696548 87.590917 0 48.294936 38.904055 87.590917 86.696548 87.590917s86.696548-39.295981 86.696548-87.590917C538.14752 823.128063 499.243465 783.832082 451.450972 783.832082M451.450972 912.842341c-22.917966 0-41.475624-18.557658-41.475624-41.419342 0-22.917966 18.557658-41.475624 41.475624-41.475624s41.475624 18.557658 41.475624 41.475624C492.926596 894.284683 474.368938 912.842341 451.450972 912.842341" p-id="2842" fill="#707070"></path><path d="M466.445478 206.699666l-35.750225-88.479147c-3.989871-9.874905 0.824785-21.218254 10.69969-25.208125l5.554506-2.24411c9.874905-3.989871 21.218254 0.824785 25.208125 10.69969l35.750225 88.479147c3.989871 9.874905-0.824785 21.218254-10.69969 25.208125l-5.554506 2.24411C481.778698 221.388203 470.435349 216.573547 466.445478 206.699666z" p-id="2843" fill="#707070"></path><path d="M806.622134 206.699666l35.750225-88.479147c3.989871-9.874905-0.824785-21.218254-10.69969-25.208125l-5.554506-2.24411c-9.874905-3.989871-21.218254 0.824785-25.208125 10.69969l-35.750225 88.479147c-3.989871 9.874905 0.824785 21.218254 10.69969 25.208125l5.554506 2.24411C791.288914 221.388203 802.632263 216.573547 806.622134 206.699666z" p-id="2844" fill="#707070"></path><path d="M617.496729 179.436742 617.496729 84.008322c0-10.650571 8.713452-19.364023 19.364023-19.364023l5.991458 0c10.649548 0 19.364023 8.713452 19.364023 19.364023l0 95.42842c0 10.650571-8.713452 19.364023-19.364023 19.364023l-5.991458 0C626.210181 198.800765 617.496729 190.087313 617.496729 179.436742z" p-id="2845" fill="#707070"></path></svg>